<svg xmlns="http://www.w3.org/2000/svg" xmlns:xlink="http://www.w3.org/1999/xlink" width="261.5" height="308.958" viewBox="0 0 261.5 308.958"><defs><style>.a{fill:none;}.b{clip-path:url(#a);}.c{opacity:0.61;}.d{clip-path:url(#c);}.e{fill:#fc9e2d;}.f{fill:#fcd681;}.g{opacity:0.54;}.h{clip-path:url(#d);}.i{fill:#ffe6a9;}</style><clipPath id="a"><rect class="a" width="261.5" height="308.958"/></clipPath><clipPath id="c"><rect class="a" width="50.321" height="44.721"/></clipPath><clipPath id="d"><rect class="a" width="145.889" height="119.788"/></clipPath></defs><g transform="translate(-53 -158.43)"><g transform="translate(53 158.43)"><g class="b"><g class="b"><g class="c" transform="translate(45.475 32.459)"><g class="d"><path class="e" d="M112.126,89.753A39.87,39.87,0,0,1,92.7,96.417a16.388,16.388,0,0,1-8.071-1.092c-2.993-1.4-5.138-4.161-6.677-7.084-2.34-4.446-3.519-9.4-4.527-14.321-.744-3.634-1.4-7.448-.357-11.008,2.01-6.851,9.694-10.508,16.813-11.048A35.828,35.828,0,0,1,112.1,57.739c4.139,2.731,7.815,6.441,9.534,11.093a21.28,21.28,0,0,1,1.215,7.317,11.809,11.809,0,0,1-1.685,6.813c-2.638,3.807-8.226,4.477-11.164,8.057" transform="translate(-72.527 -51.769)"/></g></g><path class="f" d="M278.241,298.762c2.544,5.632,5.144,11.83,3.566,17.806a40.314,40.314,0,0,1-3.059,6.952c-7.639,15.928-3.731,36.611,9.193,48.654a413.007,413.007,0,0,1-44.717,1.332c7.315-7.317,16.685-14.422,19.225-24.453.813-3.21-.012-9.569.393-12.857.668-5.423-.42-9.343.248-14.765.6-4.851,1.233-9.825,3.519-14.143s6.622-7.906,11.509-7.86" transform="translate(-90.721 -111.437)"/><g class="g" transform="translate(48.43 162.749)"><g class="h"><path class="i" d="M142.975,260.946c-11.078,5.624-22.536,11.556-30.114,21.4-5.331,6.923-8.347,15.293-11.776,23.33a218.721,218.721,0,0,1-23.846,42.2c3.63,3.559,9.571,1.457,14.577.569,12.782-2.263,25.009,5.135,36.433,11.3a230.081,230.081,0,0,0,42.138,17.579c4.84,1.475,10,2.8,14.9,1.517a55.653,55.653,0,0,1-6.943-21.64,13.225,13.225,0,0,1,.425-6.075c1.41-3.708,5.381-5.632,8.323-8.294,6.316-5.716,7.85-14.888,9.012-23.328q1.2-8.75,2.409-17.5c.956-6.94,2.039-14.205,6.215-19.83s12.514-8.823,18.4-5.024a330.583,330.583,0,0,0-77.379-17.582" transform="translate(-77.239 -259.566)"/></g></g><path d="M271.829,416.289a253.1,253.1,0,0,0,26.661.961.941.941,0,0,0,0-1.881,253.1,253.1,0,0,1-26.661-.961c-1.205-.108-1.2,1.774,0,1.881" transform="translate(-101.055 -154.571)"/><path d="M123.369,352.126a26.963,26.963,0,0,1,5.265,3.057,13.161,13.161,0,0,0,5.74,2.149,31.269,31.269,0,0,1,6.562,1.052,18.361,18.361,0,0,1,5.727,3.109c.935.751,2.275-.572,1.331-1.331a21.042,21.042,0,0,0-5.82-3.334,23.314,23.314,0,0,0-6.646-1.28,11.741,11.741,0,0,1-3.387-.627,14.831,14.831,0,0,1-2.763-1.5,26.991,26.991,0,0,0-5.509-3.114c-1.143-.406-1.635,1.411-.5,1.814" transform="translate(-45.776 -130.643)"/><path d="M192.677,380.068a12.213,12.213,0,0,0,5.327,1.6c1.026.06,2.065-.073,3.087.055a8.32,8.32,0,0,1,2.723.959c1.737.893,3.43,1.816,5.244,2.551a37.163,37.163,0,0,0,5.8,1.8c1.179.266,1.682-1.547.5-1.814a37.113,37.113,0,0,1-5.664-1.751c-1.794-.719-3.445-1.679-5.17-2.538a11.14,11.14,0,0,0-5.4-1.131,10.637,10.637,0,0,1-5.493-1.357.941.941,0,0,0-.949,1.624" transform="translate(-71.696 -141.109)"/><path d="M145.547,396.969c1.709.547,2.718,2.295,4.308,3.08,2.1,1.04,4.378-.145,6.525.684,1.988.768,3.614,2.234,5.654,2.91a10.365,10.365,0,0,0,6.822-.154c1.124-.419.637-2.238-.5-1.814a8.607,8.607,0,0,1-6.569-.137c-1.835-.828-3.4-2.183-5.351-2.771a7.678,7.678,0,0,0-3.074-.2,4.358,4.358,0,0,1-3.082-.448c-1.478-.964-2.487-2.41-4.231-2.968-1.156-.369-1.651,1.446-.5,1.814" transform="translate(-54.044 -147.372)"/><path d="M111.346,368.461a13.85,13.85,0,0,0-5.271,6.1.967.967,0,0,0,.337,1.287.951.951,0,0,0,1.287-.338,13.019,13.019,0,0,1,.871-1.662q.242-.388.511-.76c.045-.062.09-.124.136-.184.179-.24-.11.134.077-.1.1-.118.193-.237.292-.353a12.941,12.941,0,0,1,1.287-1.3q.172-.151.35-.3.106-.087.214-.172c-.1.079.024-.018.065-.047.258-.191.523-.371.794-.544a.941.941,0,0,0-.949-1.624" transform="translate(-39.525 -137.386)"/><path d="M116.311,373.671c-.127.209-.258.414-.4.616q-.1.144-.2.285l-.1.14-.063.084c-.041.055-.028.037.041-.053-.028.091-.158.2-.218.272q-.111.134-.226.266-.241.276-.5.539a13.033,13.033,0,0,1-1.053.967l-.135.11c-.09.072-.079.086,0,0a1.939,1.939,0,0,1-.28.209c-.208.15-.419.293-.635.432a.941.941,0,0,0,.949,1.624,14.1,14.1,0,0,0,4.444-4.545.941.941,0,0,0-1.624-.949" transform="translate(-41.803 -139.207)"/><path d="M122.093,377.943a10.331,10.331,0,0,1-.653,1.115q-.09.134-.185.266l-.115.156c-.07.1-.008.006.029-.036-.15.169-.284.353-.435.522a10.393,10.393,0,0,1-.917.911c-.081.071-.164.141-.246.209l-.126.1c-.135.11.105-.078.012-.008-.182.135-.366.268-.554.393a.941.941,0,1,0,.95,1.624,11.4,11.4,0,0,0,3.864-4.3.941.941,0,1,0-1.624-.949" transform="translate(-44.175 -140.801)"/><path d="M215.222,401.4a16.8,16.8,0,0,0-3.472,4.724.941.941,0,0,0,1.625.949,16.046,16.046,0,0,1,1.436-2.383c.062-.085.125-.168.188-.252s-.09.112.021-.027l.1-.123q.221-.276.455-.54c.311-.354.639-.692.979-1.018a.949.949,0,0,0,0-1.33.959.959,0,0,0-1.33,0" transform="translate(-78.939 -149.62)"/><path d="M222.013,404.17a29.438,29.438,0,0,0-4.091,5.711.941.941,0,0,0,1.625.949,28.387,28.387,0,0,1,1.775-2.84c.339-.477.562-.771.9-1.183q.542-.671,1.125-1.307a.94.94,0,0,0-1.33-1.33" transform="translate(-81.239 -150.653)"/><path d="M231.552,407.757c-.129.418-.28.827-.439,1.235-.042.1-.041.1,0,0l-.065.15q-.066.15-.135.3-.137.3-.289.588a15.19,15.19,0,0,1-1.406,2.21.943.943,0,0,0,.337,1.287.969.969,0,0,0,1.287-.337,15.856,15.856,0,0,0,2.524-4.933.95.95,0,0,0-.657-1.157.961.961,0,0,0-1.157.657" transform="translate(-85.446 -151.836)"/><path d="M100.4,95.093c-6.734.3-14.671-.243-19.658-5.382-2.779-2.864-4.054-6.788-4.982-10.581a31.143,31.143,0,0,1-.768-13.267A17.568,17.568,0,0,1,80.106,56.2c2.936-2.692,7.01-3.916,10.9-4.337a28.305,28.305,0,0,1,21.73,6.758c5.321,4.747,9.083,11.861,9.161,19.084a11.2,11.2,0,0,1-1.14,5.449,8.431,8.431,0,0,1-3.706,3.474c-3.3,1.683-7.406,2.013-11.048,1.947-7.3-.134-14.765-3.064-18.2-9.877a13.713,13.713,0,0,1-1.219-9.554,11.691,11.691,0,0,1,6.607-7.567,11.377,11.377,0,0,1,9.933.409c2.956,1.572,6.359,5.134,5.648,8.794-.585,3.014-3.99,4.43-6.741,4.635a9.608,9.608,0,0,1-4.614-.7c-1.293-.581-2.67-1.761-2.4-3.328.2-1.149,1.186-2.438,2.457-1.975,1.14.414,1.631-1.4.5-1.814a3.551,3.551,0,0,0-4.146,1.738,4.406,4.406,0,0,0,.107,4.949c2.145,3.005,6.641,3.471,9.984,2.738,3.432-.752,6.74-3.2,6.811-6.994.078-4.171-3.339-7.98-6.862-9.774a13.322,13.322,0,0,0-11.417-.394,13.561,13.561,0,0,0-7.591,8.466c-2.273,7.72,2.61,15.878,9.427,19.381a27.02,27.02,0,0,0,12.481,2.753c4.049-.02,8.643-.52,12.143-2.726,7.617-4.8,4.961-15.989,1.4-22.536a29.512,29.512,0,0,0-19.882-14.731c-8.386-1.738-18.788-.314-24.039,7.147a21.993,21.993,0,0,0-3.691,12.374A39.743,39.743,0,0,0,75.383,84.4a17.824,17.824,0,0,0,7.684,9.465A26.641,26.641,0,0,0,94.51,96.932a51.619,51.619,0,0,0,5.885.042c1.206-.054,1.212-1.935,0-1.881" transform="translate(-27.118 -18.576)"/><path d="M58.8,123.324A177.356,177.356,0,0,0,42.853,140.5c-.757.932.566,2.27,1.33,1.33a177.51,177.51,0,0,1,15.943-17.176c.882-.833-.45-2.161-1.33-1.33" transform="translate(-15.899 -45.901)"/><path d="M90.872,136.828,89.608,147.86a.946.946,0,0,0,.941.941.963.963,0,0,0,.941-.941l1.264-11.032a.947.947,0,0,0-.94-.941.963.963,0,0,0-.941.941" transform="translate(-33.422 -50.685)"/><path d="M116.271,137.729a11.973,11.973,0,0,0,.5,5.767c.574,2.021,1.181,4.034,1.772,6.051q1.757,5.994,3.515,11.989a.941.941,0,0,0,1.813-.5q-1.67-5.7-3.341-11.4l-1.648-5.624c-.547-1.865-1.206-3.825-.8-5.784.245-1.182-1.568-1.687-1.814-.5" transform="translate(-43.304 -51.12)"/><path d="M138.207,130.2a27.757,27.757,0,0,1,7.223,7.535.961.961,0,0,0,1.287.337.951.951,0,0,0,.337-1.287,30.169,30.169,0,0,0-7.9-8.21.948.948,0,0,0-1.287.337.96.96,0,0,0,.337,1.287" transform="translate(-51.377 -47.91)"/><path d="M156.746,122.5a153.848,153.848,0,0,0,28.714,12.543q4.258,1.362,8.59,2.47a.941.941,0,0,0,.5-1.814,151.412,151.412,0,0,1-29.077-10.719q-3.948-1.938-7.778-4.1a.941.941,0,0,0-.949,1.624" transform="translate(-58.294 -45.037)"/><path d="M167.917,100.58a53.081,53.081,0,0,1,8.8,1.26c1.178.27,1.682-1.543.5-1.814a56.212,56.212,0,0,0-9.3-1.327c-1.21-.07-1.205,1.811,0,1.881" transform="translate(-62.295 -36.813)"/><path d="M161.023,77.094q18.684,1.668,37.446,2.188a.941.941,0,0,0,0-1.881q-18.752-.519-37.446-2.188c-1.205-.108-1.2,1.774,0,1.881" transform="translate(-59.725 -28.053)"/><path d="M149.911,52.356a18.586,18.586,0,0,1,7.162-1.835.961.961,0,0,0,.941-.941.95.95,0,0,0-.941-.941,20.935,20.935,0,0,0-8.112,2.092.949.949,0,0,0-.337,1.287.96.96,0,0,0,1.287.337" transform="translate(-55.391 -18.142)"/><path d="M126.923,26.178q6.678-12.227,12.8-24.747c.529-1.083-1.092-2.038-1.625-.949Q131.979,13,125.3,25.228c-.581,1.063,1.043,2.013,1.624.949" transform="translate(-46.69 0)"/><path d="M108.9,29.551a96.111,96.111,0,0,0-.2-12.235c-.1-1.2-1.978-1.209-1.881,0a96.109,96.109,0,0,1,.2,12.235c-.058,1.21,1.824,1.207,1.881,0" transform="translate(-39.844 -6.122)"/><path d="M66.528,27.4,39.609,3.46c-.9-.8-2.237.524-1.331,1.33L65.2,28.727c.9.8,2.237-.524,1.33-1.33" transform="translate(-14.165 -1.198)"/><path d="M52.106,57.338A100.4,100.4,0,0,1,41.644,56.02L31.086,54.487c-1.184-.172-1.7,1.64-.5,1.814L41.45,57.877a102.211,102.211,0,0,0,10.655,1.342c1.211.047,1.208-1.834,0-1.881" transform="translate(-11.154 -20.319)"/><path d="M38.369,86.54l-16.3,2.7a91.258,91.258,0,0,0-14.222,3.1A33.9,33.9,0,0,0,.438,95.8c-1.019.648-.076,2.276.949,1.625a39.712,39.712,0,0,1,13.27-4.95c4.986-1.053,10.048-1.775,15.074-2.609l9.138-1.516c1.191-.2.686-2.011-.5-1.814" transform="translate(0 -32.273)"/><path d="M72.716,258.565A407.91,407.91,0,0,0,117.36,263.9q6.328.407,12.666.609c1.211.038,1.209-1.843,0-1.881a403.366,403.366,0,0,1-44.583-3.919q-6.128-.881-12.227-1.957c-1.184-.209-1.692,1.6-.5,1.814" transform="translate(-26.869 -95.761)"/><path d="M293.783,301.82q29.713-1.2,59.46-1.06,8.3.04,16.589.182a.941.941,0,0,0,0-1.881q-29.733-.51-59.469.312-8.292.23-16.581.565c-1.206.048-1.213,1.93,0,1.881" transform="translate(-109.241 -111.475)"/><path d="M249.787,400.426a38,38,0,0,1,1.308,8.492c.052,2.445-.659,4.624-2.936,5.789a15.714,15.714,0,0,1-6.486,1.22,31.579,31.579,0,0,0-8.5,1.13,11.694,11.694,0,0,0-6.331,4.613c-.658,1.02.97,1.964,1.625.949,3.153-4.888,9.712-4.52,14.782-4.9a13.765,13.765,0,0,0,6.486-1.753,7.349,7.349,0,0,0,3.23-6.119,34.652,34.652,0,0,0-1.367-9.923.941.941,0,0,0-1.813.5" transform="translate(-84.555 -148.921)"/><path d="M87.269,343.282a79.346,79.346,0,0,0-16.117,6.947c-4.9,2.666-10.062,5.69-15.779,5.962a13.766,13.766,0,0,1-8.288-2.058c-1.015-.666-1.959.962-.949,1.624,4.677,3.064,10.637,2.763,15.732,1,5.686-1.966,10.734-5.39,16.136-7.979A61.657,61.657,0,0,1,87.77,345.1a.941.941,0,0,0-.5-1.814" transform="translate(-17.047 -128.027)"/><path d="M39.94,360.649a9.108,9.108,0,0,0-7.935.355c-2.129,1.046-4.368,3.261-3.548,5.858.806,2.558,3.768,3.879,6.291,3.575a6.607,6.607,0,0,0,5.48-4.639c.645-2.133-.4-5.453-3.088-5.321-1.205.059-1.212,1.941,0,1.881a1.171,1.171,0,0,1,1.149.824,2.882,2.882,0,0,1,.185,1.9,4.728,4.728,0,0,1-3.416,3.4c-1.677.4-3.951-.226-4.708-1.915-.748-1.67,1.005-3.1,2.3-3.787a7.24,7.24,0,0,1,6.338-.51.966.966,0,0,0,1.287-.337.948.948,0,0,0-.337-1.287" transform="translate(-10.55 -134.24)"/><path d="M225.722,434.743a4.944,4.944,0,0,0-4.392,3.315,10.944,10.944,0,0,0-.673,3.156c-.1,1.082-.309,2.354.712,3.075a3.942,3.942,0,0,0,1.3.507,8.492,8.492,0,0,0,1.739.3,4.1,4.1,0,0,0,2.8-.947,7.381,7.381,0,0,0,2.432-5.178,3.842,3.842,0,0,0-1.152-3.039,2.978,2.978,0,0,0-2.981-.717.966.966,0,0,0-.657,1.157.948.948,0,0,0,1.157.657,1.042,1.042,0,0,1,1.152.233,1.941,1.941,0,0,1,.605,1.562,5.709,5.709,0,0,1-1.445,3.591,2.4,2.4,0,0,1-1.357.786,5.057,5.057,0,0,1-2.328-.372.858.858,0,0,1-.2-.1c.077.057,0,.136.032.024a.927.927,0,0,1-.013-.152,9.158,9.158,0,0,1,.083-1.241,10.266,10.266,0,0,1,.413-2.249,3.227,3.227,0,0,1,2.785-2.491.941.941,0,0,0,0-1.881" transform="translate(-82.271 -162.157)"/><path class="f" d="M173.26,288.7a8.02,8.02,0,0,1-2.2-2.819,6.083,6.083,0,0,1-.283-.739,1.964,1.964,0,0,0-.09-.388c.018.025-.023-.141,0-.029,0,0-.075.172-.04.068.023-.067,0,0-.043.023a.431.431,0,0,1,.1-.059c.094-.018-.016.011-.036.017a.9.9,0,0,1,.123-.035,1.45,1.45,0,0,0,.184-.04c-.048.007.192-.018.255-.022a3.322,3.322,0,0,0,2.618-.929,3.854,3.854,0,0,0,.485-1.786.456.456,0,0,1,.124-.248,1.158,1.158,0,0,1,.551-.22,4.173,4.173,0,0,1,1.63.154,5.034,5.034,0,0,0,2.517.026c1.154-.354.662-2.171-.5-1.814a4.279,4.279,0,0,1-2.091-.145,5.17,5.17,0,0,0-2-.048,2.713,2.713,0,0,0-1.633.954,3.953,3.953,0,0,0-.546,1.911c-.029.148.034.048-.056.107.132-.087-.042.021-.09.039.159-.061-.108.021-.153.031-.061.014-.122.025-.183.036-.157.026.126-.013-.036,0a12.527,12.527,0,0,0-1.492.157,2.007,2.007,0,0,0-1.328.9,2.575,2.575,0,0,0,.055,2.25,9.557,9.557,0,0,0,2.816,3.969.967.967,0,0,0,1.33,0,.948.948,0,0,0,0-1.33" transform="translate(-62.969 -104.285)"/><path class="f" d="M154.319,304.235l-.722-2.9c-.031-.126-.065-.252-.093-.379-.009-.041-.043-.3-.026-.1a1.65,1.65,0,0,1-.008-.176c.006-.113.005-.115,0-.005l.024-.082c-.036.088-.032.091.014.01q-.12.15-.016.043c-.1.073-.12.091-.061.055s.035-.026-.08.026a1.065,1.065,0,0,1,.125-.038c.159-.06-.181-.011.056-.008.085,0,.169,0,.254,0s.149.012.223.021c-.253-.029.078.018.124.027.161.031.32.07.482.1a3.212,3.212,0,0,0,1.28-.033,1.756,1.756,0,0,0,1.487-1.769.966.966,0,0,0-.941-.94c-.457.021-1.006.418-.941.94a.729.729,0,0,1,.009.117c.029-.158.034-.187.012-.09.159-.414-.056.13.045-.093.053-.067.054-.073,0-.018q.181-.131.056-.046c-.033.021-.067.039-.1.057q.185-.072.085-.035c-.071.013-.142.047-.213.064-.043.009-.085.018-.129.025q.213-.025.053-.011c-.066,0-.132.007-.2.006-.044,0-.087,0-.13-.006-.106-.011-.085-.008.061.009a3.177,3.177,0,0,1-.494-.1c-.231-.042-.465-.077-.7-.1a2.448,2.448,0,0,0-1.294.226,1.8,1.8,0,0,0-.91,1.142,3.132,3.132,0,0,0,.105,1.561q.373,1.5.748,3a.941.941,0,0,0,1.814-.5" transform="translate(-56.542 -111.182)"/><path class="f" d="M155.652,324.954l-3.158,2.313a.958.958,0,0,0,0,1.624,2.1,2.1,0,0,1,.767,2.011,4.458,4.458,0,0,0-.259,1.57,1.946,1.946,0,0,0,.781,1.246c.334.266.478.4.473.844a8.792,8.792,0,0,0,0,1.431,2.086,2.086,0,0,0,1.885,1.941c1.207.095,1.2-1.787,0-1.881.213.017.026.08.019-.112,0-.116-.058-.24-.067-.359-.035-.454.076-.909.033-1.366a2.455,2.455,0,0,0-.562-1.433c-.155-.177-.652-.433-.7-.607-.043-.143.142-.477.18-.62a4.276,4.276,0,0,0,.122-.717,3.89,3.89,0,0,0-.13-1.349,4.1,4.1,0,0,0-1.584-2.223v1.624l3.157-2.313a.968.968,0,0,0,.337-1.287.948.948,0,0,0-1.287-.337" transform="translate(-56.712 -121.155)"/><path class="f" d="M216.57,357.369c-.682,1.569.654,2.837,2.132,3.127a3.594,3.594,0,0,1,1.342.349c.333.261.223.831.217,1.251a3.183,3.183,0,0,0,.366,1.761,2.876,2.876,0,0,0,1.892,1.1,7.1,7.1,0,0,0,4.756-.029.946.946,0,0,0,.337-1.287.965.965,0,0,0-1.287-.337,5.381,5.381,0,0,1-3.388-.182,1.825,1.825,0,0,1-.719-.244.823.823,0,0,1-.061-.172,12.436,12.436,0,0,1-.018-1.351,2.553,2.553,0,0,0-1.813-2.417c-.446-.152-.919-.187-1.374-.3a1.32,1.32,0,0,1-.554-.257c-.179-.154-.107-.286-.208-.056a.971.971,0,0,0-.337-1.287.947.947,0,0,0-1.287.337" transform="translate(-80.711 -133.126)"/><path class="f" d="M233.18,323.7a2.381,2.381,0,0,0-1.544,1.665,3.281,3.281,0,0,0,.362,2.406,15.136,15.136,0,0,0,1.424,1.993l1.681,2.213a.971.971,0,0,0,1.287.337.947.947,0,0,0,.337-1.287c-.887-1.168-1.8-2.319-2.66-3.509a5.114,5.114,0,0,1-.5-.8,1.717,1.717,0,0,1-.113-.317,1.9,1.9,0,0,1-.05-.228c.014.1,0,.053.009-.018s0-.122.005-.182c-.007.1-.013.051.007-.019s.038-.146.063-.218c.049-.14-.057.108.014-.02.008-.014.1-.163.045-.088s.054-.056.067-.069c.1-.1-.105.07.011-.013.038-.026.2-.082.053-.031a.963.963,0,0,0,.656-1.157.949.949,0,0,0-1.157-.657" transform="translate(-86.363 -120.724)"/><path class="f" d="M201.8,318.927a35.822,35.822,0,0,0,1.714,5.989,5.049,5.049,0,0,0,3.634,3.247.973.973,0,0,0,1.157-.657.948.948,0,0,0-.657-1.157c-1.31-.184-2.043-1.243-2.551-2.48a38.736,38.736,0,0,1-1.483-5.443.941.941,0,0,0-1.814.5" transform="translate(-75.258 -118.521)"/><path class="f" d="M220.7,334.459a6.234,6.234,0,0,0,1.557,5.938c1.415,1.688,3.423,2.689,5.088,4.089a25.867,25.867,0,0,1,2.223,2.431,4.926,4.926,0,0,0,1.12.882c.305.181.387.189.479.517a4.49,4.49,0,0,1,.043.631,2.157,2.157,0,0,0,1.865,1.922,13.253,13.253,0,0,0,3.92.237c1.2-.1,1.209-1.978,0-1.881a11.566,11.566,0,0,1-3.42-.17c-.478-.106-.493-.157-.522-.633a2.967,2.967,0,0,0-.246-1.186c-.434-.86-1.458-1.119-2.068-1.832a19.061,19.061,0,0,0-1.877-2.089c-1.43-1.247-3.132-2.154-4.518-3.45-1.327-1.241-2.46-3.049-1.83-4.906.39-1.149-1.426-1.642-1.814-.5" transform="translate(-82.224 -124.51)"/><path class="f" d="M249.632,343.375a4.82,4.82,0,0,0,4.4,5.051.946.946,0,0,0,.941-.94.963.963,0,0,0-.941-.94,1.158,1.158,0,0,0-.174-.017c.154.022.181.024.079.008l-.057-.011a3.417,3.417,0,0,1-.335-.083c-.055-.017-.11-.034-.164-.054l-.107-.041.119.051a2.115,2.115,0,0,0-.31-.152q-.151-.084-.295-.181c-.026-.018-.108-.1-.142-.1q.17.134.053.041l-.045-.036a4.113,4.113,0,0,1-.512-.511c-.137-.162.055.081,0,.009-.034-.047-.068-.093-.1-.141-.066-.1-.127-.194-.184-.295s-.106-.205-.158-.309c-.041-.082.083.212.006.013-.021-.054-.04-.108-.059-.162q-.055-.164-.094-.332c-.013-.056-.024-.112-.035-.169-.04-.216.009.119,0,.023a3.839,3.839,0,0,1-.005-.72.944.944,0,0,0-.94-.94.966.966,0,0,0-.941.94" transform="translate(-93.105 -127.726)"/><path class="f" d="M240.906,376.677c.1.033.2.078.3.107l-.127-.055.1.043.119.056a4.614,4.614,0,0,1,.524.3c.044.029.087.059.13.09.061.044.166.164-.022-.02.068.067.151.123.223.186a4.95,4.95,0,0,1,.426.431c.035.039.069.08.1.121s.125.153.024.029.016.025.036.053.051.072.075.108a4.816,4.816,0,0,1,.315.547c.019.039.038.079.056.119.087.191-.046-.121-.011-.031s.07.18.1.272a4.5,4.5,0,0,1,.155.613.946.946,0,0,0,1.157.657.966.966,0,0,0,.656-1.157,5.72,5.72,0,0,0-3.833-4.287.949.949,0,0,0-1.157.657.962.962,0,0,0,.657,1.157" transform="translate(-89.602 -139.808)"/><path d="M135.774,295.173c-.13-1.544,1.7-2.707,2.472-3.876a4.294,4.294,0,0,0,.7-2.789c-.053-.648-.549-2.371.387-2.662.789-.245,1.766.24,2.6.1a2.217,2.217,0,0,0,1.206-.579,3.315,3.315,0,0,0,.442-.582,2.376,2.376,0,0,1,.192-.3q-.137.064.033.029c.539-.13,1,0,1.509-.323a2.453,2.453,0,0,0,.843-1.144c.386-.816.967-1.926,2-1.93a.941.941,0,0,0,0-1.881,3.626,3.626,0,0,0-2.9,1.631c-.351.47-.526,1.03-.848,1.5-.158.232,0,.156-.285.253-.266.092-.63,0-.915.083-.65.184-.872.647-1.255,1.131-.285.36-.6.286-1.046.237a3.95,3.95,0,0,0-2.842.313,3.149,3.149,0,0,0-1.145,2.8,10.874,10.874,0,0,1,.156,2.121,2.812,2.812,0,0,1-.552,1.187c-1.055,1.473-2.8,2.647-2.628,4.679.1,1.2,1.983,1.208,1.881,0" transform="translate(-49.937 -104.153)"/><path d="M160.629,272.123l3.428-3.723a8.237,8.237,0,0,1,3.423-2.65c1.291-.4,2.633-.64,3.62-1.648,1-1.027,1.581-2.2,3.176-2.317,1.2-.091,1.21-1.973,0-1.881a5.233,5.233,0,0,0-3.827,2.043,4.055,4.055,0,0,1-1.569,1.417c-.678.285-1.417.4-2.111.64a9.166,9.166,0,0,0-3.689,2.682c-1.267,1.363-2.521,2.736-3.781,4.105-.819.889.508,2.223,1.33,1.33" transform="translate(-59.322 -96.942)"/><path d="M109.07,309.927a30.881,30.881,0,0,1-3.437,2.859.953.953,0,0,0-.337,1.287,2.516,2.516,0,0,1-.019,2.381c-.36,1.059-.777,2.1-1.184,3.144q-1.145,2.93-2.421,5.8-2.537,5.711-5.565,11.187-3.059,5.531-6.6,10.778a36.2,36.2,0,0,1-3.808,5.079c-1.4,1.445-3.119,2.545-4.419,4.093-2.749,3.274-3.752,7.518-4.637,11.6-.256,1.181,1.557,1.685,1.814.5.807-3.721,1.645-7.77,4.153-10.769,1.356-1.621,3.175-2.754,4.611-4.295a40.7,40.7,0,0,0,3.751-5.023,143.492,143.492,0,0,0,12.493-22.59q1.453-3.3,2.746-6.659c.7-1.823,2.048-4.344.707-6.18q-.169.643-.337,1.287a34.137,34.137,0,0,0,3.817-3.153c.875-.84-.456-2.168-1.33-1.33" transform="translate(-28.579 -115.502)"/><path d="M86.676,402.779a4.645,4.645,0,0,1,1.69-1.019,7.336,7.336,0,0,1,2.364.137,17.094,17.094,0,0,0,4.449-.32c1.519-.264,3.024-.622,4.56-.773a23.821,23.821,0,0,1,4.849.035c1.2.128,1.193-1.754,0-1.881a23.85,23.85,0,0,0-5.15,0c-1.7.189-3.363.579-5.047.858a18.759,18.759,0,0,1-4.993.038,5.451,5.451,0,0,0-4.05,1.6c-.943.759.4,2.083,1.33,1.33" transform="translate(-31.714 -148.756)"/><path d="M120.366,400.637a5.958,5.958,0,0,0,3.5,1.635,5.825,5.825,0,0,0,1.844-.1,2.668,2.668,0,0,0,.871-.274c.134-.093.319-.061.088-.152-.166-.066,0-.047-.019.111a3.193,3.193,0,0,0,.885,2.845,2.763,2.763,0,0,0,1.754.433,5.851,5.851,0,0,1,1.982.274,5.354,5.354,0,0,1,2.88,2.362c.676,1.171.821,2.49,1.97,3.356,2.063,1.555,5.109.767,7.5,1.116a17.305,17.305,0,0,1,8.917,4.129c.9.8,2.24-.527,1.33-1.33a19.01,19.01,0,0,0-11.922-4.83,17.864,17.864,0,0,1-3.816-.187c-1.429-.374-1.584-1.626-2.144-2.8a7.216,7.216,0,0,0-6.128-3.971c-.451-.017-1.127.215-1.276-.3a10.031,10.031,0,0,1-.083-1.38,1.847,1.847,0,0,0-.784-1.388,2.171,2.171,0,0,0-1.953.016,4.007,4.007,0,0,1-4.069-.9c-.875-.836-2.208.492-1.33,1.33" transform="translate(-44.789 -148.84)"/><path d="M179.023,430.727c.26-.164.677.832.783,1.053a3.707,3.707,0,0,0,.835,1.2,2.3,2.3,0,0,0,1.492.556c.51.011,1.1-.247,1.564.044a6.649,6.649,0,0,1,.962.98,3.806,3.806,0,0,0,1.514.936,17.692,17.692,0,0,0,3.734.467c1.362.127,2.728.229,4.086.384a6.087,6.087,0,0,1,3.428,1.561c1.8,1.524,3.81,3.316,6.362,2.6a.941.941,0,0,0-.5-1.814c-2.484.7-4.4-2.383-6.329-3.418a8.941,8.941,0,0,0-3.489-.861c-1.482-.142-2.964-.277-4.447-.416a18.816,18.816,0,0,1-1.886-.2,2.432,2.432,0,0,1-1.425-.868,3.317,3.317,0,0,0-2.566-1.361c-.651.013-1.139.287-1.519-.361a13.734,13.734,0,0,0-.7-1.31,2.147,2.147,0,0,0-2.848-.8c-1.021.645-.078,2.273.949,1.624" transform="translate(-66.257 -159.949)"/><path d="M233.921,443.971a27,27,0,0,1,5.582-.058,24.112,24.112,0,0,1,2.664.407,4.4,4.4,0,0,0,2.3.12,1.825,1.825,0,0,0,1.262-1.74,2.716,2.716,0,0,0-1.105-1.883,14.118,14.118,0,0,1-1.543-1.294,4.722,4.722,0,0,1-.876-1.6,14.617,14.617,0,0,1-.559-4.6.941.941,0,0,0-1.881,0c.018,2.551.185,5.37,1.893,7.417a8.83,8.83,0,0,0,1.428,1.231,6.59,6.59,0,0,1,.691.651c.034.036.047.128.078.151-.072-.053.085-.1.016-.113-.152-.029-.344.014-.507-.009-.369-.053-.732-.158-1.1-.229-.847-.163-1.7-.286-2.563-.374a27.019,27.019,0,0,0-5.784.038.969.969,0,0,0-.94.94.946.946,0,0,0,.94.94" transform="translate(-86.9 -161.29)"/><path d="M274.43,341.53a4.226,4.226,0,0,0,2.487-1.887.959.959,0,0,0-.337-1.287,5.061,5.061,0,0,1-2.169-2.085c-.407-1.033.25-1.6.973-2.226a4.572,4.572,0,0,0,1.611-2.539,9.424,9.424,0,0,0-.006-3.151.971.971,0,0,0-.941-.941.946.946,0,0,0-.94.941,6.077,6.077,0,0,1-.131,3.307c-.472.988-1.626,1.448-2.176,2.4a3.475,3.475,0,0,0,.087,3.366,7.617,7.617,0,0,0,2.744,2.55l-.337-1.287a2.256,2.256,0,0,1-1.363,1.023.941.941,0,0,0,.5,1.814" transform="translate(-101.605 -122.124)"/><path d="M279.334,312.6c-.09-1.026-.149-2.054-.165-3.084-.007-.463-.008-.927,0-1.391.012-.5-.02-.529.468-.627a3.255,3.255,0,0,0,1.842-.8,3.5,3.5,0,0,0,.9-2.022c.115-.867-.072-1.727-.014-2.594a3.82,3.82,0,0,1,.924-2.113,42.183,42.183,0,0,1,3.935-3.881c.877-.838-.455-2.167-1.33-1.33a41.77,41.77,0,0,0-4.088,4.072,6.03,6.03,0,0,0-1.175,2.218,11.446,11.446,0,0,0-.084,2.9c0,.7-.128,1.457-.892,1.642-.733.177-1.462.225-1.948.889a4.517,4.517,0,0,0-.424,2.725c.009,1.134.068,2.264.168,3.393.105,1.2,1.988,1.208,1.881,0" transform="translate(-103.42 -109.845)"/><path d="M189.821,258.367a14.562,14.562,0,0,1,5.14-1.462c1.81-.043,2.991.939,4.489,1.773,2.824,1.573,6.107,1.747,9.268,1.643,1.649-.055,3.3-.176,4.946-.2.792-.011,1.586-.005,2.376.052a3.332,3.332,0,0,1,2.279,1.081,5.319,5.319,0,0,0,4.14,1.214,20.088,20.088,0,0,1,5.1.105c3.874.744,7.352,2.753,10.721,4.713a.941.941,0,0,0,.949-1.625,42.125,42.125,0,0,0-9.7-4.555,16.963,16.963,0,0,0-5.264-.655c-1.509.067-3.363.585-4.61-.527A5.809,5.809,0,0,0,217.8,258.6a8.244,8.244,0,0,0-2.546-.346c-1.69-.06-3.38.045-5.067.126-3.277.157-6.822.327-9.786-1.324-1.714-.954-3.111-2-5.167-2.031a15.011,15.011,0,0,0-5.912,1.531.973.973,0,0,0-.656,1.157.945.945,0,0,0,1.157.657" transform="translate(-70.358 -95.121)"/><path d="M274.854,277.123c1.2-.838,2.719,1.088,3.6,1.708a3.829,3.829,0,0,0,2.2.764,5.557,5.557,0,0,0,1.055-.147c.24-.05.8-.26,1.043-.135.218.112.335.5.48.7a2.476,2.476,0,0,0,.8.712,4.693,4.693,0,0,0,2.005.425,5.537,5.537,0,0,1,4.005,1.856c.808.905,2.134-.429,1.33-1.33a7.164,7.164,0,0,0-4.566-2.353c-.6-.067-1.546.083-2.016-.369-.277-.266-.39-.692-.675-.971a2.028,2.028,0,0,0-1.088-.532,14.467,14.467,0,0,0-2.374.261c-.875-.009-1.568-.766-2.19-1.293-1.232-1.045-3.038-1.98-4.558-.922-.987.687-.048,2.318.949,1.624" transform="translate(-102.009 -102.586)"/><path d="M305.172,292.226c1.02,1.114.721,2.966.873,4.351a5.905,5.905,0,0,0,.673,2.368c.424.727,1.147,1.1,1.636,1.745.544.724-.406,1.943-.582,2.729a11.081,11.081,0,0,0-.141,3.1c.1,1.716.376,3.823-1.014,5.12-.887.828.445,2.156,1.33,1.331,1.51-1.409,1.732-3.533,1.626-5.486a13.528,13.528,0,0,1,.013-3.57c.254-1.176,1.116-2.178.761-3.44-.271-.966-1.11-1.417-1.736-2.117a3.744,3.744,0,0,1-.732-2.3c-.13-1.834-.054-3.719-1.378-5.164-.82-.895-2.147.438-1.33,1.33" transform="translate(-113.732 -108.392)"/><path d="M303.346,331.555a3.627,3.627,0,0,1,.252,2.831,8.278,8.278,0,0,1-1.783,2.405,3.534,3.534,0,0,0-.655,1.236,12.133,12.133,0,0,0-.123,1.783,7.046,7.046,0,0,1-1.411,2.561c-1.2,1.968-1.246,4.337-1.236,6.57q.018,3.984.269,7.962c.075,1.2,1.956,1.211,1.881,0-.171-2.753-.267-5.511-.27-8.269a15.643,15.643,0,0,1,.261-3.477,8.958,8.958,0,0,1,1.527-3.025,5.493,5.493,0,0,0,.868-3.1c.052-1.125,1.008-1.686,1.641-2.517a5.505,5.505,0,0,0,.4-5.915c-.571-1.068-2.2-.119-1.624.949" transform="translate(-111.297 -123.139)"/><path d="M301.66,380.028a17.2,17.2,0,0,0,3.613,11.822c1.416,1.805,3.309,3.109,4.827,4.814a21.678,21.678,0,0,1,2.161,2.982,2.966,2.966,0,0,1,.582,1.411c0,.181-.205.915-.537.759-1.089-.513-2.045,1.109-.95,1.624a2.237,2.237,0,0,0,2.829-.74,3.1,3.1,0,0,0,.082-3.324,21.032,21.032,0,0,0-5.081-6.189,16.836,16.836,0,0,1-4.454-5.882,15.43,15.43,0,0,1-1.189-7.275c.09-1.208-1.791-1.2-1.881,0" transform="translate(-112.5 -141.411)"/><path d="M295.78,293.513h1.942a.97.97,0,0,0,.665-.275.94.94,0,0,0-.665-1.606H295.78a.97.97,0,0,0-.665.275.941.941,0,0,0,.665,1.606" transform="translate(-109.973 -108.777)"/><path d="M262.082,356.646c1.03,3.017-.934,6.044-2.032,8.759a14.024,14.024,0,0,0-1.088,4.93,11.419,11.419,0,0,1-.236,2.659,6.34,6.34,0,0,1-1.2,2.227c-1,1.268-2.2,2.352-3.2,3.617-.943,1.192-1.794,2.449-2.64,3.711-1.635,2.44-3.331,5.053-5.9,6.611-1.49.9-3.375,1.221-4.626,2.5a3.327,3.327,0,0,0-.38,4.484c.779.929,2.1-.408,1.33-1.33-.4-.474-.09-1.246.239-1.668a4.866,4.866,0,0,1,2.039-1.253,14.852,14.852,0,0,0,3.864-2.2c2.279-1.87,3.872-4.439,5.5-6.857a35.179,35.179,0,0,1,2.616-3.53,38.675,38.675,0,0,0,3.144-3.63,8.735,8.735,0,0,0,1.319-4.921,13.239,13.239,0,0,1,.986-4.738c1.252-3.133,3.263-6.4,2.077-9.872-.389-1.139-2.206-.65-1.814.5" transform="translate(-89.548 -132.599)"/><path d="M276.409,432.209a29.51,29.51,0,0,1-12.192,11.346c-2.643,1.318-5.565,1.964-8.181,3.336a18.774,18.774,0,0,0-5.552,5.049c-1.663,2.018-3.406,4.25-6.033,4.987a.941.941,0,0,0,.5,1.814c5.121-1.436,6.9-7,11.116-9.7,2.611-1.667,5.763-2.282,8.549-3.6a31.2,31.2,0,0,0,13.417-12.288.941.941,0,0,0-1.624-.949" transform="translate(-90.931 -161.043)"/><path d="M53.116,391.578a17.864,17.864,0,0,0-11.8,1.83,17.676,17.676,0,0,0-4.77,3.7,24.478,24.478,0,0,0-3.477,5.546c-1.062,2.078-2.877,5.025-5.646,4.642a.974.974,0,0,0-1.157.657.946.946,0,0,0,.657,1.157,6.5,6.5,0,0,0,5.812-2.436c1.554-1.807,2.322-4.084,3.546-6.1a15.92,15.92,0,0,1,9.511-6.926,15.266,15.266,0,0,1,6.822-.26c1.183.23,1.689-1.582.5-1.814" transform="translate(-9.786 -145.938)"/><path d="M219.233,458.551a6.59,6.59,0,0,1-2.679,1.152,18.364,18.364,0,0,0-3.092.928c-1.9.861-3.686,2.877-3.009,5.089.353,1.154,2.169.662,1.814-.5a1.875,1.875,0,0,1,.6-1.9,4.94,4.94,0,0,1,2.171-1.283c1.927-.586,3.933-.815,5.53-2.158a.947.947,0,0,0,0-1.33.961.961,0,0,0-1.33,0" transform="translate(-78.443 -170.937)"/><path d="M231.417,483.876a16.014,16.014,0,0,1-1.988,2.109q-.265.234-.54.456l-.145.116c-.139.111.076-.055-.016.013s-.178.134-.268.2q-.6.438-1.243.818a.941.941,0,0,0,.95,1.625,16.714,16.714,0,0,0,4.581-4.007,1.023,1.023,0,0,0,.276-.665.941.941,0,0,0-1.606-.665" transform="translate(-84.576 -180.381)"/><path d="M63.6,406.124a4.63,4.63,0,0,0-2.831.735,4.834,4.834,0,0,0-1.934,2.409.945.945,0,0,0,.657,1.157.965.965,0,0,0,1.157-.656c.034-.092.108-.16-.013.019a1.076,1.076,0,0,0,.058-.125q.06-.124.13-.243t.164-.254c.02-.028.12-.162.024-.037s.008-.006.03-.033a3.813,3.813,0,0,1,.406-.411l.105-.089c.125-.107-.132.095-.038.029s.165-.117.251-.171a4.567,4.567,0,0,1,.486-.26c.18-.085-.209.075-.021.011l.129-.047c.087-.029.175-.056.263-.08s.2-.047.3-.065c.037-.006.2-.033.038-.008s0,0,.039,0a3.615,3.615,0,0,1,.605,0,.945.945,0,0,0,.941-.94.964.964,0,0,0-.941-.941" transform="translate(-21.927 -151.477)"/><path d="M41.708,421.151l-8.838,5.669c-1.016.651-.073,2.28.949,1.624l8.838-5.669c1.016-.651.074-2.28-.949-1.624" transform="translate(-12.097 -157.03)"/></g></g></g></g></svg>