<svg id="그룹_1062" data-name="그룹 1062" xmlns="http://www.w3.org/2000/svg" width="112.752" height="58.27" viewBox="0 0 112.752 58.27">
  <path id="패스_7265" data-name="패스 7265" d="M1070.457,1042.864a3.751,3.751,0,0,0-1.514-1.238,6.153,6.153,0,0,0-2.649-.482h-42.447a2.057,2.057,0,0,0-1.41.516,2.165,2.165,0,0,0,0,2.959,2.056,2.056,0,0,0,1.41.516h41.759a1.253,1.253,0,0,1,.86.275,1.467,1.467,0,0,1,.31,1.1v12.727a1.85,1.85,0,0,0,.653,1.547,2.527,2.527,0,0,0,1.617.516,2.391,2.391,0,0,0,1.582-.516,1.9,1.9,0,0,0,.619-1.547V1046.51a13.678,13.678,0,0,0-.138-1.927A4.024,4.024,0,0,0,1070.457,1042.864Z" transform="translate(-969.022 -1003.03)" fill="#fff"/>
  <path id="패스_7266" data-name="패스 7266" d="M1223.559,900.257h-9.149v-9.631h9.149a2.053,2.053,0,0,0,1.41-.517,2.161,2.161,0,0,0,0-2.958,2.057,2.057,0,0,0-1.41-.516h-9.149v-5.228a1.856,1.856,0,0,0-.654-1.549,2.531,2.531,0,0,0-1.616-.516,2.387,2.387,0,0,0-1.583.516,1.9,1.9,0,0,0-.619,1.549v28.412a1.9,1.9,0,0,0,.619,1.548,2.386,2.386,0,0,0,1.583.516,2.53,2.53,0,0,0,1.616-.516,1.854,1.854,0,0,0,.654-1.548v-5.572h9.149a2.058,2.058,0,0,0,1.41-.516,2.161,2.161,0,0,0,0-2.958A2.057,2.057,0,0,0,1223.559,900.257Z" transform="translate(-1112.803 -879.342)" fill="#fff"/>
  <path id="패스_7267" data-name="패스 7267" d="M798.628,909.146a3.735,3.735,0,0,0,1.514,1.239,6.141,6.141,0,0,0,2.648.481h16.3a6.148,6.148,0,0,0,2.649-.481,3.746,3.746,0,0,0,1.514-1.239,4.014,4.014,0,0,0,.653-1.719,13.6,13.6,0,0,0,.138-1.927V884.035a1.854,1.854,0,0,0-.654-1.549,2.53,2.53,0,0,0-1.616-.516,2.388,2.388,0,0,0-1.583.516,1.9,1.9,0,0,0-.619,1.549v8.806H802.309v-8.806a1.855,1.855,0,0,0-.654-1.549,2.53,2.53,0,0,0-1.616-.516,2.387,2.387,0,0,0-1.583.516,1.9,1.9,0,0,0-.619,1.549V905.5a13.5,13.5,0,0,0,.137,1.927A4.006,4.006,0,0,0,798.628,909.146Zm3.681-12.314h17.268V905.5a1.465,1.465,0,0,1-.31,1.1,1.247,1.247,0,0,1-.86.275H803.478a1.247,1.247,0,0,1-.86-.275,1.47,1.47,0,0,1-.309-1.1Z" transform="translate(-797.774 -881.352)" fill="#fff"/>
  <path id="패스_7268" data-name="패스 7268" d="M1019.572,909.13a13.423,13.423,0,0,0,4.506,2.407,19.2,19.2,0,0,0,5.952.861,19.52,19.52,0,0,0,5.985-.861,13.374,13.374,0,0,0,4.54-2.407,10.951,10.951,0,0,0,2.889-3.681,10.431,10.431,0,0,0,1.033-4.61v-7.016a10.434,10.434,0,0,0-1.033-4.61,10.973,10.973,0,0,0-2.889-3.681,13.388,13.388,0,0,0-4.54-2.407,19.539,19.539,0,0,0-5.985-.86,19.214,19.214,0,0,0-5.952.86,13.438,13.438,0,0,0-4.506,2.407,10.458,10.458,0,0,0-3.762,6.9,4.925,4.925,0,0,1,.008,9.848,10.442,10.442,0,0,0,3.755,6.849Z" transform="translate(-964.402 -881.577)" fill="#fff"/>
  <path id="패스_7269" data-name="패스 7269" d="M846.341,899.893h0v-.56a4.918,4.918,0,0,1,0-8.423v-.559h0v-8.945a1.856,1.856,0,0,0-.654-1.549,2.531,2.531,0,0,0-1.616-.516,2.387,2.387,0,0,0-1.582.516,1.9,1.9,0,0,0-.619,1.549v35.711c0,.025.005.045.005.069v5.286H802.042v-5.3a1.853,1.853,0,0,0-.654-1.548,2.53,2.53,0,0,0-1.616-.516,2.386,2.386,0,0,0-1.582.516,1.9,1.9,0,0,0-.619,1.548v14.791a13.521,13.521,0,0,0,.137,1.926,4.028,4.028,0,0,0,.654,1.72,3.756,3.756,0,0,0,1.513,1.239,6.159,6.159,0,0,0,2.649.481h38.869a6.157,6.157,0,0,0,2.649-.481,3.765,3.765,0,0,0,1.514-1.239,4.033,4.033,0,0,0,.653-1.72,13.63,13.63,0,0,0,.138-1.926V917.174c0-.023-.005-.042-.005-.065ZM841.689,931.9a1.471,1.471,0,0,1-.309,1.1,1.255,1.255,0,0,1-.86.275H803.026a1.252,1.252,0,0,1-.86-.275,1.471,1.471,0,0,1-.309-1.1v-5.5h39.833Z" transform="translate(-797.57 -879.342)" fill="#fff"/>
</svg>
